# xmcd CD database file
#
# Track frame offsets:
#	150
#	19285
#	36062
#
# Disc length: 736 seconds
#
# Revision: 1
# Processed by: cddbd v1.5.2PL0 Copyright (c) Steve Scherf et al.
# Submitted via: CDex 1.70beta2
#
DISCID=1c02de03
DTITLE=真心ブラザーズ - 拝啓、ジョンレノン
DYEAR=1996
DGENRE=JPop
TTITLE0=拝啓、ジョンレノン
TTITLE1=嫌いじゃないぜ
TTITLE2=拝啓、ジョンレノン（オリジナル・カラオケ）
EXTD=YEAR: 1996
EXTT0=
EXTT1=
EXTT2=
PLAYORDER=
